<mxfile host="app.diagrams.net" agent="Mozilla/5.0 (Windows NT 10.0; Win64; x64; rv:132.0) Gecko/20100101 Firefox/132.0" version="24.9.0">
  <diagram name="Página-1" id="YRGYd96hdLRrCePZJ2NX">
    <mxGraphModel dx="2052" dy="1089" grid="1" gridSize="10" guides="1" tooltips="1" connect="1" arrows="1" fold="1" page="1" pageScale="1" pageWidth="827" pageHeight="1169" math="0" shadow="0">
      <root>
        <mxCell id="0" />
        <mxCell id="1" parent="0" />
        <mxCell id="0AEurTKILX4ectZ03HKB-2" value="Actualizar información cliente" style="ellipse;whiteSpace=wrap;html=1;aspect=fixed;" parent="1" vertex="1">
          <mxGeometry x="-720" y="460" width="80" height="80" as="geometry" />
        </mxCell>
        <mxCell id="0AEurTKILX4ectZ03HKB-3" value="&lt;div&gt;Gestionar datos comerciales del servicio&lt;br&gt;&lt;/div&gt;" style="ellipse;whiteSpace=wrap;html=1;aspect=fixed;" parent="1" vertex="1">
          <mxGeometry x="-220" y="740" width="80" height="80" as="geometry" />
        </mxCell>
        <mxCell id="0AEurTKILX4ectZ03HKB-5" value="Gestionar de solicitudes servicio" style="ellipse;whiteSpace=wrap;html=1;aspect=fixed;" parent="1" vertex="1">
          <mxGeometry x="-600" y="180" width="80" height="80" as="geometry" />
        </mxCell>
        <mxCell id="0AEurTKILX4ectZ03HKB-6" value="&lt;div&gt;Enviar informes&lt;/div&gt;&lt;div&gt;satisfacción&lt;br&gt;&lt;/div&gt;" style="ellipse;whiteSpace=wrap;html=1;aspect=fixed;" parent="1" vertex="1">
          <mxGeometry x="-670" y="310" width="80" height="80" as="geometry" />
        </mxCell>
        <mxCell id="0AEurTKILX4ectZ03HKB-7" value="DATOS CLAVE" style="shape=partialRectangle;whiteSpace=wrap;html=1;left=0;right=0;fillColor=none;" parent="1" vertex="1">
          <mxGeometry x="-150" y="200" width="120" height="60" as="geometry" />
        </mxCell>
        <mxCell id="0AEurTKILX4ectZ03HKB-8" value="INFORMACIÓN&amp;nbsp; CLIENTES" style="shape=partialRectangle;whiteSpace=wrap;html=1;left=0;right=0;fillColor=none;" parent="1" vertex="1">
          <mxGeometry x="-660" y="670" width="120" height="60" as="geometry" />
        </mxCell>
        <mxCell id="0AEurTKILX4ectZ03HKB-9" value="SOLICITUDES" style="shape=partialRectangle;whiteSpace=wrap;html=1;left=0;right=0;fillColor=none;" parent="1" vertex="1">
          <mxGeometry x="-420" y="110" width="120" height="60" as="geometry" />
        </mxCell>
        <mxCell id="0AEurTKILX4ectZ03HKB-11" value="" style="endArrow=classic;html=1;rounded=0;entryX=0;entryY=0;entryDx=0;entryDy=0;" parent="1" target="0AEurTKILX4ectZ03HKB-2" edge="1">
          <mxGeometry width="50" height="50" relative="1" as="geometry">
            <mxPoint x="-790" y="420" as="sourcePoint" />
            <mxPoint x="-508" y="624" as="targetPoint" />
          </mxGeometry>
        </mxCell>
        <mxCell id="0AEurTKILX4ectZ03HKB-12" value="Información" style="edgeLabel;html=1;align=center;verticalAlign=middle;resizable=0;points=[];" parent="0AEurTKILX4ectZ03HKB-11" vertex="1" connectable="0">
          <mxGeometry x="0.3584" y="1" relative="1" as="geometry">
            <mxPoint as="offset" />
          </mxGeometry>
        </mxCell>
        <mxCell id="0AEurTKILX4ectZ03HKB-13" value="" style="endArrow=classic;html=1;rounded=0;exitX=1;exitY=1;exitDx=0;exitDy=0;entryX=0.5;entryY=0;entryDx=0;entryDy=0;" parent="1" source="0AEurTKILX4ectZ03HKB-2" target="0AEurTKILX4ectZ03HKB-8" edge="1">
          <mxGeometry width="50" height="50" relative="1" as="geometry">
            <mxPoint x="-238" y="664" as="sourcePoint" />
            <mxPoint x="-188" y="614" as="targetPoint" />
          </mxGeometry>
        </mxCell>
        <mxCell id="GHR4kZ57UZfbafITTCkA-2" value="" style="endArrow=classic;html=1;rounded=0;entryX=-0.012;entryY=0.413;entryDx=0;entryDy=0;entryPerimeter=0;" parent="1" target="0AEurTKILX4ectZ03HKB-5" edge="1">
          <mxGeometry width="50" height="50" relative="1" as="geometry">
            <mxPoint x="-730" y="130" as="sourcePoint" />
            <mxPoint x="-506" y="196" as="targetPoint" />
          </mxGeometry>
        </mxCell>
        <mxCell id="GHR4kZ57UZfbafITTCkA-3" value="Solicitud" style="edgeLabel;html=1;align=center;verticalAlign=middle;resizable=0;points=[];" parent="GHR4kZ57UZfbafITTCkA-2" vertex="1" connectable="0">
          <mxGeometry x="0.3584" y="1" relative="1" as="geometry">
            <mxPoint x="-27" y="-11" as="offset" />
          </mxGeometry>
        </mxCell>
        <mxCell id="GHR4kZ57UZfbafITTCkA-6" value="SERVICIOS" style="shape=partialRectangle;whiteSpace=wrap;html=1;left=0;right=0;fillColor=none;" parent="1" vertex="1">
          <mxGeometry x="-378" y="314" width="120" height="60" as="geometry" />
        </mxCell>
        <mxCell id="GHR4kZ57UZfbafITTCkA-8" value="" style="endArrow=classic;html=1;rounded=0;exitX=0.756;exitY=0.986;exitDx=0;exitDy=0;exitPerimeter=0;entryX=0.5;entryY=0;entryDx=0;entryDy=0;" parent="1" source="0AEurTKILX4ectZ03HKB-6" target="uzknCaxqNSEOnoTHnnZg-13" edge="1">
          <mxGeometry width="50" height="50" relative="1" as="geometry">
            <mxPoint x="-278" y="1164" as="sourcePoint" />
            <mxPoint x="-448" y="424" as="targetPoint" />
          </mxGeometry>
        </mxCell>
        <mxCell id="GHR4kZ57UZfbafITTCkA-9" value="" style="endArrow=classic;html=1;rounded=0;entryX=0.013;entryY=0.4;entryDx=0;entryDy=0;entryPerimeter=0;" parent="1" target="0AEurTKILX4ectZ03HKB-6" edge="1">
          <mxGeometry width="50" height="50" relative="1" as="geometry">
            <mxPoint x="-770" y="280" as="sourcePoint" />
            <mxPoint x="-328" y="1014" as="targetPoint" />
          </mxGeometry>
        </mxCell>
        <mxCell id="GHR4kZ57UZfbafITTCkA-10" value="&lt;div&gt;Informes&lt;/div&gt;&lt;div&gt;satisfacción&lt;br&gt;&lt;/div&gt;" style="edgeLabel;html=1;align=center;verticalAlign=middle;resizable=0;points=[];" parent="GHR4kZ57UZfbafITTCkA-9" vertex="1" connectable="0">
          <mxGeometry x="-0.0493" y="-3" relative="1" as="geometry">
            <mxPoint as="offset" />
          </mxGeometry>
        </mxCell>
        <mxCell id="GHR4kZ57UZfbafITTCkA-11" value="" style="endArrow=classic;html=1;rounded=0;entryX=0.754;entryY=0.088;entryDx=0;entryDy=0;entryPerimeter=0;" parent="1" target="GHR4kZ57UZfbafITTCkA-13" edge="1">
          <mxGeometry width="50" height="50" relative="1" as="geometry">
            <mxPoint x="-20" y="60" as="sourcePoint" />
            <mxPoint x="122.00427124746216" y="185.71572875253798" as="targetPoint" />
          </mxGeometry>
        </mxCell>
        <mxCell id="GHR4kZ57UZfbafITTCkA-12" value="Datos clave" style="edgeLabel;html=1;align=center;verticalAlign=middle;resizable=0;points=[];" parent="GHR4kZ57UZfbafITTCkA-11" vertex="1" connectable="0">
          <mxGeometry x="-0.016" y="-2" relative="1" as="geometry">
            <mxPoint x="5" y="-1" as="offset" />
          </mxGeometry>
        </mxCell>
        <mxCell id="GHR4kZ57UZfbafITTCkA-13" value="Gestionar datos clave" style="ellipse;whiteSpace=wrap;html=1;aspect=fixed;" parent="1" vertex="1">
          <mxGeometry x="-190" y="70" width="80" height="80" as="geometry" />
        </mxCell>
        <mxCell id="GHR4kZ57UZfbafITTCkA-16" value="Gestionar historial de asistencia del cliente" style="ellipse;whiteSpace=wrap;html=1;aspect=fixed;" parent="1" vertex="1">
          <mxGeometry x="-710" y="800" width="80" height="80" as="geometry" />
        </mxCell>
        <mxCell id="GHR4kZ57UZfbafITTCkA-17" value="" style="endArrow=classic;startArrow=classic;html=1;rounded=0;entryX=0.5;entryY=1;entryDx=0;entryDy=0;exitX=0.785;exitY=0.107;exitDx=0;exitDy=0;exitPerimeter=0;" parent="1" source="GHR4kZ57UZfbafITTCkA-16" target="0AEurTKILX4ectZ03HKB-8" edge="1">
          <mxGeometry width="50" height="50" relative="1" as="geometry">
            <mxPoint x="-258" y="924" as="sourcePoint" />
            <mxPoint x="-208" y="874" as="targetPoint" />
          </mxGeometry>
        </mxCell>
        <mxCell id="GHR4kZ57UZfbafITTCkA-18" value="" style="endArrow=classic;html=1;rounded=0;entryX=0;entryY=1;entryDx=0;entryDy=0;" parent="1" target="GHR4kZ57UZfbafITTCkA-16" edge="1">
          <mxGeometry width="50" height="50" relative="1" as="geometry">
            <mxPoint x="-770" y="980" as="sourcePoint" />
            <mxPoint x="-393" y="1094" as="targetPoint" />
          </mxGeometry>
        </mxCell>
        <mxCell id="GHR4kZ57UZfbafITTCkA-19" value="Historial" style="edgeLabel;html=1;align=center;verticalAlign=middle;resizable=0;points=[];" parent="GHR4kZ57UZfbafITTCkA-18" vertex="1" connectable="0">
          <mxGeometry x="-0.1678" y="1" relative="1" as="geometry">
            <mxPoint as="offset" />
          </mxGeometry>
        </mxCell>
        <mxCell id="GHR4kZ57UZfbafITTCkA-21" value="" style="endArrow=classic;html=1;rounded=0;entryX=1;entryY=1;entryDx=0;entryDy=0;" parent="1" target="0AEurTKILX4ectZ03HKB-3" edge="1">
          <mxGeometry width="50" height="50" relative="1" as="geometry">
            <mxPoint x="-80" y="900" as="sourcePoint" />
            <mxPoint x="34" y="714" as="targetPoint" />
          </mxGeometry>
        </mxCell>
        <mxCell id="GHR4kZ57UZfbafITTCkA-22" value="Datos comerciales" style="edgeLabel;html=1;align=center;verticalAlign=middle;resizable=0;points=[];" parent="GHR4kZ57UZfbafITTCkA-21" vertex="1" connectable="0">
          <mxGeometry x="-0.1678" y="1" relative="1" as="geometry">
            <mxPoint as="offset" />
          </mxGeometry>
        </mxCell>
        <mxCell id="GHR4kZ57UZfbafITTCkA-24" value="Enviar datos clave" style="ellipse;whiteSpace=wrap;html=1;aspect=fixed;" parent="1" vertex="1">
          <mxGeometry x="-180" y="304" width="80" height="80" as="geometry" />
        </mxCell>
        <mxCell id="GHR4kZ57UZfbafITTCkA-26" value="" style="endArrow=classic;html=1;rounded=0;entryX=0.447;entryY=-0.001;entryDx=0;entryDy=0;exitX=0.246;exitY=0.945;exitDx=0;exitDy=0;exitPerimeter=0;entryPerimeter=0;" parent="1" source="GHR4kZ57UZfbafITTCkA-13" target="0AEurTKILX4ectZ03HKB-7" edge="1">
          <mxGeometry width="50" height="50" relative="1" as="geometry">
            <mxPoint x="132" y="114" as="sourcePoint" />
            <mxPoint x="62" y="161" as="targetPoint" />
          </mxGeometry>
        </mxCell>
        <mxCell id="uzknCaxqNSEOnoTHnnZg-4" value="" style="endArrow=classic;html=1;rounded=0;entryX=1;entryY=0;entryDx=0;entryDy=0;" edge="1" parent="1" source="0AEurTKILX4ectZ03HKB-7" target="GHR4kZ57UZfbafITTCkA-24">
          <mxGeometry width="50" height="50" relative="1" as="geometry">
            <mxPoint x="-208" y="604" as="sourcePoint" />
            <mxPoint x="-158" y="554" as="targetPoint" />
          </mxGeometry>
        </mxCell>
        <mxCell id="uzknCaxqNSEOnoTHnnZg-6" value="" style="endArrow=classic;html=1;rounded=0;entryX=1;entryY=0;entryDx=0;entryDy=0;exitX=0.001;exitY=0.384;exitDx=0;exitDy=0;exitPerimeter=0;" edge="1" parent="1" source="GHR4kZ57UZfbafITTCkA-24" target="GHR4kZ57UZfbafITTCkA-6">
          <mxGeometry width="50" height="50" relative="1" as="geometry">
            <mxPoint x="-30" y="344" as="sourcePoint" />
            <mxPoint x="-60" y="386" as="targetPoint" />
          </mxGeometry>
        </mxCell>
        <mxCell id="uzknCaxqNSEOnoTHnnZg-9" value="" style="endArrow=classic;html=1;rounded=0;entryX=0;entryY=0.5;entryDx=0;entryDy=0;exitX=1;exitY=0.5;exitDx=0;exitDy=0;" edge="1" parent="1" source="0AEurTKILX4ectZ03HKB-9" target="GHR4kZ57UZfbafITTCkA-13">
          <mxGeometry width="50" height="50" relative="1" as="geometry">
            <mxPoint x="-298" y="374" as="sourcePoint" />
            <mxPoint x="-248" y="324" as="targetPoint" />
          </mxGeometry>
        </mxCell>
        <mxCell id="uzknCaxqNSEOnoTHnnZg-10" value="" style="endArrow=classic;html=1;rounded=0;entryX=0;entryY=0.5;entryDx=0;entryDy=0;exitX=1;exitY=0.5;exitDx=0;exitDy=0;" edge="1" parent="1" source="0AEurTKILX4ectZ03HKB-5" target="0AEurTKILX4ectZ03HKB-9">
          <mxGeometry width="50" height="50" relative="1" as="geometry">
            <mxPoint x="-388" y="284" as="sourcePoint" />
            <mxPoint x="-338" y="234" as="targetPoint" />
          </mxGeometry>
        </mxCell>
        <mxCell id="uzknCaxqNSEOnoTHnnZg-13" value="INFORMES SATISFACCIÓN" style="shape=partialRectangle;whiteSpace=wrap;html=1;left=0;right=0;fillColor=none;" vertex="1" parent="1">
          <mxGeometry x="-590" y="444" width="120" height="60" as="geometry" />
        </mxCell>
        <mxCell id="uzknCaxqNSEOnoTHnnZg-14" value="Envío ID cliente" style="ellipse;whiteSpace=wrap;html=1;aspect=fixed;" vertex="1" parent="1">
          <mxGeometry x="-493" y="570" width="80" height="80" as="geometry" />
        </mxCell>
        <mxCell id="uzknCaxqNSEOnoTHnnZg-15" value="" style="endArrow=classic;html=1;rounded=0;exitX=1;exitY=0;exitDx=0;exitDy=0;entryX=0;entryY=1;entryDx=0;entryDy=0;" edge="1" parent="1" source="0AEurTKILX4ectZ03HKB-8" target="uzknCaxqNSEOnoTHnnZg-14">
          <mxGeometry width="50" height="50" relative="1" as="geometry">
            <mxPoint x="-448" y="614" as="sourcePoint" />
            <mxPoint x="-398" y="564" as="targetPoint" />
          </mxGeometry>
        </mxCell>
        <mxCell id="uzknCaxqNSEOnoTHnnZg-17" value="Envío ID servicio" style="ellipse;whiteSpace=wrap;html=1;aspect=fixed;rotation=0;" vertex="1" parent="1">
          <mxGeometry x="-420" y="424" width="80" height="80" as="geometry" />
        </mxCell>
        <mxCell id="uzknCaxqNSEOnoTHnnZg-18" value="" style="endArrow=classic;html=1;rounded=0;exitX=0.5;exitY=1;exitDx=0;exitDy=0;entryX=0.618;entryY=0.006;entryDx=0;entryDy=0;entryPerimeter=0;" edge="1" parent="1" source="GHR4kZ57UZfbafITTCkA-6" target="uzknCaxqNSEOnoTHnnZg-17">
          <mxGeometry width="50" height="50" relative="1" as="geometry">
            <mxPoint x="-218" y="564" as="sourcePoint" />
            <mxPoint x="-168" y="514" as="targetPoint" />
          </mxGeometry>
        </mxCell>
        <mxCell id="uzknCaxqNSEOnoTHnnZg-20" value="" style="endArrow=classic;html=1;rounded=0;exitX=0;exitY=0.5;exitDx=0;exitDy=0;entryX=1;entryY=0.5;entryDx=0;entryDy=0;" edge="1" parent="1" source="uzknCaxqNSEOnoTHnnZg-17" target="uzknCaxqNSEOnoTHnnZg-13">
          <mxGeometry width="50" height="50" relative="1" as="geometry">
            <mxPoint x="-288" y="444" as="sourcePoint" />
            <mxPoint x="-320" y="486" as="targetPoint" />
          </mxGeometry>
        </mxCell>
        <mxCell id="uzknCaxqNSEOnoTHnnZg-21" value="" style="endArrow=classic;html=1;rounded=0;exitX=0;exitY=0;exitDx=0;exitDy=0;entryX=0.5;entryY=1;entryDx=0;entryDy=0;" edge="1" parent="1" source="uzknCaxqNSEOnoTHnnZg-14" target="uzknCaxqNSEOnoTHnnZg-13">
          <mxGeometry width="50" height="50" relative="1" as="geometry">
            <mxPoint x="-278" y="584" as="sourcePoint" />
            <mxPoint x="-228" y="534" as="targetPoint" />
          </mxGeometry>
        </mxCell>
        <mxCell id="uzknCaxqNSEOnoTHnnZg-27" value="" style="endArrow=classic;startArrow=classic;html=1;rounded=0;entryX=0;entryY=0;entryDx=0;entryDy=0;" edge="1" parent="1" source="0AEurTKILX4ectZ03HKB-5" target="GHR4kZ57UZfbafITTCkA-6">
          <mxGeometry width="50" height="50" relative="1" as="geometry">
            <mxPoint x="-510" y="310" as="sourcePoint" />
            <mxPoint x="-460" y="260" as="targetPoint" />
          </mxGeometry>
        </mxCell>
        <mxCell id="uzknCaxqNSEOnoTHnnZg-28" value="" style="endArrow=classic;startArrow=classic;html=1;rounded=0;entryX=0.802;entryY=0.928;entryDx=0;entryDy=0;entryPerimeter=0;exitX=0.193;exitY=0.076;exitDx=0;exitDy=0;exitPerimeter=0;" edge="1" parent="1" source="0AEurTKILX4ectZ03HKB-3" target="uzknCaxqNSEOnoTHnnZg-17">
          <mxGeometry width="50" height="50" relative="1" as="geometry">
            <mxPoint x="-210" y="690" as="sourcePoint" />
            <mxPoint x="-160" y="640" as="targetPoint" />
          </mxGeometry>
        </mxCell>
      </root>
    </mxGraphModel>
  </diagram>
</mxfile>
